<?xml version="1.0" standalone="no"?>
<!DOCTYPE svg PUBLIC "-//W3C//DTD SVG 20010904//EN"
 "http://www.w3.org/TR/2001/REC-SVG-20010904/DTD/svg10.dtd">
<svg version="1.0" xmlns="http://www.w3.org/2000/svg"
 width="559.000000pt" height="150.000000pt" viewBox="0 0 559.000000 150.000000"
 preserveAspectRatio="xMidYMid meet">

<g transform="translate(0.000000,150.000000) scale(0.0900000,-0.100000)"
fill="#000000" stroke="none">
<path d="M520 714 c0 -81 -5 -154 -10 -165 -14 -25 -60 -25 -93 1 l-26 21 -17
-26 c-13 -21 -14 -28 -3 -41 45 -55 140 -57 193 -5 l31 31 3 165 3 165 -40 0
-41 0 0 -146z"/>
<path d="M955 845 c-92 -35 -150 -142 -126 -233 48 -176 266 -211 365 -58 48
73 30 196 -36 251 -61 50 -136 65 -203 40z m110 -36 c96 -26 141 -127 101
-224 -17 -41 -27 -43 -67 -14 -29 20 -40 61 -19 74 6 3 10 27 10 52 0 53 -18
72 -66 73 -44 0 -68 -37 -60 -94 13 -86 12 -88 -19 -107 -16 -10 -33 -18 -37
-18 -16 -2 -38 60 -38 104 0 88 55 148 150 164 3 1 23 -4 45 -10z"/>
<path d="M1460 660 l0 -200 109 0 c158 0 211 28 211 113 0 40 -34 87 -65 87
-24 0 -18 13 15 32 61 35 51 110 -20 146 -37 18 -60 22 -147 22 l-103 0 0
-200z m225 96 c15 -42 -21 -68 -89 -64 l-51 3 -3 48 -3 48 68 -3 c64 -3 68 -4
78 -32z m-26 -127 c35 -12 49 -46 32 -77 -8 -15 -23 -21 -61 -24 -77 -5 -90 3
-90 55 0 24 3 47 7 50 10 11 77 8 112 -4z"/>
<path d="M2083 840 c-48 -29 -67 -63 -60 -108 8 -48 39 -75 122 -102 66 -22
90 -46 77 -78 -14 -38 -105 -33 -164 9 l-27 20 -15 -29 c-14 -27 -14 -31 2
-45 30 -27 92 -48 142 -49 170 -1 207 176 47 227 -29 10 -62 24 -74 31 -30 19
-31 62 -1 73 23 8 87 -2 121 -21 16 -8 23 -7 34 8 24 33 16 51 -34 68 -64 22
-131 20 -170 -4z"/>
<path d="M2650 839 c-24 -11 -53 -28 -63 -37 -57 -51 -74 -160 -37 -232 57
-113 220 -146 325 -66 42 32 43 39 10 54 -35 16 -43 15 -72 -8 -18 -14 -41
-20 -76 -20 -44 0 -53 4 -88 39 -34 33 -39 45 -39 82 0 56 16 87 59 116 45 30
98 30 143 -1 32 -21 38 -22 67 -10 39 16 39 26 -1 56 -69 52 -152 62 -228 27z"/>
<path d="M3144 847 c-2 -7 -3 -96 -2 -197 l3 -185 40 0 40 0 1 60 c1 56 2 59
30 67 20 6 31 4 37 -4 4 -7 22 -38 40 -68 29 -49 36 -55 70 -58 47 -4 47 6 2
78 -19 30 -35 57 -35 60 0 4 11 12 26 18 48 22 69 115 38 173 -24 48 -82 69
-192 69 -66 0 -94 -4 -98 -13z m207 -67 c14 -8 19 -21 19 -50 0 -55 -19 -70
-91 -70 l-59 0 0 65 0 65 56 0 c30 0 64 -5 75 -10z"/>
<path d="M3690 660 l0 -201 38 3 37 3 0 195 0 195 -37 3 -38 3 0 -201z"/>
<path d="M4020 659 l0 -201 118 4 c93 3 124 7 149 22 34 21 53 53 53 91 0 27
-45 85 -66 85 -20 0 -18 4 21 43 42 42 44 65 9 106 -33 39 -77 51 -191 51
l-93 0 0 -201z m208 119 c17 -17 15 -54 -4 -72 -10 -11 -34 -16 -70 -16 l-54
0 0 50 0 50 58 0 c32 0 63 -5 70 -12z m10 -160 c17 -17 15 -63 -3 -78 -13 -10
-48 -14 -112 -11 -21 1 -23 6 -23 51 l0 50 63 0 c36 0 68 -5 75 -12z"/>
<path d="M4575 847 c-3 -7 -4 -96 -3 -197 l3 -185 145 0 145 0 3 28 c2 17 -1
27 -10 28 -7 0 -53 1 -103 2 l-90 2 -5 125 c-3 69 -4 128 -2 133 2 4 48 7 103
7 l100 0 -3 33 -3 32 -138 3 c-106 2 -139 0 -142 -11z"/>
<path d="M5175 847 c-102 -48 -95 -164 12 -201 121 -43 152 -77 99 -111 -29
-19 -68 -14 -130 17 -38 19 -40 20 -53 2 -29 -40 -5 -63 90 -88 50 -13 63 -13
106 0 123 36 133 156 18 209 -28 14 -59 25 -67 25 -46 0 -82 69 -44 84 27 10
73 7 111 -9 36 -15 38 -15 55 7 24 31 23 35 -14 54 -43 22 -145 28 -183 11z"/>
<path d="M4726 665 c-4 -14 -5 -29 -2 -33 2 -4 29 -5 60 -4 54 4 56 5 56 33 0
28 -1 29 -54 29 -49 0 -54 -2 -60 -25z"/>
</g>
</svg>
